<?xml version="1.0" standalone="no"?>
<!DOCTYPE svg PUBLIC "-//W3C//DTD SVG 20010904//EN"
 "http://www.w3.org/TR/2001/REC-SVG-20010904/DTD/svg10.dtd">
<svg version="1.0" xmlns="http://www.w3.org/2000/svg"
 width="16.000000pt" height="16.000000pt" viewBox="0 0 16.000000 16.000000"
 preserveAspectRatio="xMidYMid meet">
<metadata>
Created by potrace 1.11, written by Peter Selinger 2001-2013
</metadata>
<g transform="translate(0.000000,16.000000) scale(0.002286,-0.002286)"
fill="#000000" stroke="none">
<path d="M3028 6518 c-267 -266 -716 -710 -996 -988 -281 -278 -853 -845
-1272 -1259 l-761 -755 28 -27 c25 -23 986 -994 1728 -1744 588 -595 1691
-1709 1710 -1727 19 -18 22 -15 240 201 121 121 356 354 522 518 457 452 1580
1563 2210 2190 l563 558 -498 501 c-273 276 -835 843 -1249 1260 -413 417
-973 983 -1245 1257 l-493 497 -487 -482z m657 -884 l174 -176 -472 -468
c-260 -257 -598 -592 -752 -744 -154 -153 -385 -381 -513 -509 l-232 -231 265
-266 c145 -146 379 -382 520 -525 141 -143 300 -304 353 -358 l97 -97 -174
-170 c-95 -94 -176 -170 -180 -170 -3 0 -17 11 -31 24 -30 28 -1178 1190
-1398 1414 l-153 156 295 290 c425 419 1801 1783 1920 1903 56 56 102 102 104
103 2 0 81 -79 177 -176z m860 -868 c170 -173 525 -531 788 -796 l477 -483
-224 -221 c-124 -121 -575 -568 -1003 -992 -428 -424 -849 -842 -937 -928
l-158 -157 -175 177 -175 176 310 307 c1009 997 1652 1637 1652 1644 0 4 -181
190 -402 413 -547 550 -818 826 -818 833 0 10 334 340 345 341 5 0 149 -141
320 -314z"/>
</g>
</svg>
